{"title":"Hell Baby 2013 HDRip XVID AC3 HQ Hive-CM8 ","uid":8748199,"size":1485732834,"categoryP":"video","categoryS":"movies","magnet":"?xt=urn:btih:5ae55ef634273e2cd4a11d557e59ab14ac044567&amp;dn=Hell+Baby+2013+HDRip+XVID+AC3+HQ+Hive-CM8+&amp;tr=udp%3A%2F%2Ftracker.openbittorrent.com%3A80&amp;tr=udp%3A%2F%2Fopen.demonii.com%3A1337&amp;tr=udp%3A%2F%2Ftracker.coppersurfer.tk%3A6969&amp;tr=udp%3A%2F%2Fexodus.desync.com%3A6969","seeders":0,"leechers":1,"uploader":"srkfan","files":4,"time":1374977621,"description":" &lt;a href=&quot;http://img580.imageshack.us/img580/7933/fymx.jpg&quot; rel=&quot;nofollow&quot; target=&quot;_NEW&quot;&gt;http://img580.imageshack.us/img580/7933/fymx.jpg&lt;/a&gt;\n\n\nHell.Baby.2013.HDRip.XVID.AC3.HQ.Hive-CM8\n\n\nSource: 1080p Web-dl\n\nVideo.: 720x400 @bitrate 1700 2pass\nAudio.: English AC3 5.1 @384\nSubs..: Yes, English in srt/subs\nSample: Yes, included\n\n\nIMDb..: http://www.imdb.com/title/tt2318527/\n\n\nENCODE\nQuality was ok...\nfixed brightnes, constrast, saturation and rgb, added sharpness and denoise.\ngot very nice\nenjoy\n\n\nGeneral\nComplete name                  : Hell.Baby.2013.HDRip.XVID.AC3.HQ.Hive-CM8.avi\nFormat                         : AVI\nFormat/Info                    : Audio Video Interleave\nFile size                      : 1.37 GiB\nDuration                       : 1h 34mn\nOverall bit rate               : 2 092 Kbps\nWriting application            : Nandub v1.0rc2\nWriting library                : Nandub build 1853/release\n\nVideo\nID                             : 0\nFormat                         : MPEG-4 Visual\nFormat profile                 : Advanced Simple@L5\nFormat settings, BVOP          : 2\nFormat settings, QPel          : Yes\nFormat settings, GMC           : No warppoints\nFormat settings, Matrix        : Default (H.263)\nMuxing mode                    : Packed bitstream\nCodec ID                       : XVID\nCodec ID/Hint                  : XviD\nDuration                       : 1h 34mn\nBit rate                       : 1 699 Kbps\nWidth                          : 720 pixels\nHeight                         : 400 pixels\nDisplay aspect ratio           : 16:9\nFrame rate                     : 23.976 fps\nColor space                    : YUV\nChroma subsampling             : 4:2:0\nBit depth                      : 8 bits\nScan type                      : Progressive\nCompression mode               : Lossy\nBits/(Pixel*Frame)             : 0.246\nStream size                    : 1.12 GiB (81%)\nWriting library                : XviD 1.2.1 (UTC 2008-12-04)\n\nAudio\nID                             : 1\nFormat                         : AC-3\nFormat/Info                    : Audio Coding 3\nMode extension                 : CM (complete main)\nFormat settings, Endianness    : Big\nCodec ID                       : 2000\nDuration                       : 1h 34mn\nBit rate mode                  : Constant\nBit rate                       : 384 Kbps\nChannel(s)                     : 6 channels\nChannel positions              : Front: L C R, Side: L R, LFE\nSampling rate                  : 48.0 KHz\nBit depth                      : 16 bits\nCompression mode               : Lossy\nStream size                    : 258 MiB (18%)\nAlignment                      : Split accross interleaves\nInterleave, duration           : 42 ms (1.00 video frame)\nInterleave, preload duration   : 500 ms\n\n\nPLOT\nAn expectant couple, who moves into the most haunted house in New Orleans,\ncalls upon the services of the Vatican's elite exorcism team to save them\nfrom a demonic baby.\n\n\nCAST\nRob Corddry         ...    Jack\nLeslie Bibb         ...    Vanessa\nKeegan Michael Key  ...    F'Resnel\n\n &lt;a href=&quot;\nhttp://img7.imageshack.us/img7/9526/ourx.png&quot; rel=&quot;nofollow&quot; target=&quot;_NEW&quot;&gt;\nhttp://img7.imageshack.us/img7/9526/ourx.png&lt;/a&gt; &lt;a href=&quot;\nhttp://img16.imageshack.us/img16/1319/o9zf.png&quot; rel=&quot;nofollow&quot; target=&quot;_NEW&quot;&gt;\nhttp://img16.imageshack.us/img16/1319/o9zf.png&lt;/a&gt; &lt;a href=&quot;\nhttp://img547.imageshack.us/img547/3032/xcbv.png&quot; rel=&quot;nofollow&quot; target=&quot;_NEW&quot;&gt;\nhttp://img547.imageshack.us/img547/3032/xcbv.png&lt;/a&gt; &lt;a href=&quot;\nhttp://img22.imageshack.us/img22/2717/2c0l.png&quot; rel=&quot;nofollow&quot; target=&quot;_NEW&quot;&gt;\nhttp://img22.imageshack.us/img22/2717/2c0l.png&lt;/a&gt; &lt;a href=&quot;\nhttp://img10.imageshack.us/img10/1800/bf1q.png&quot; rel=&quot;nofollow&quot; target=&quot;_NEW&quot;&gt;\nhttp://img10.imageshack.us/img10/1800/bf1q.png&lt;/a&gt;\n","torrent":{"xt":"urn:btih:5ae55ef634273e2cd4a11d557e59ab14ac044567","amp;dn":"Hell+Baby+2013+HDRip+XVID+AC3+HQ+Hive-CM8+","amp;tr":["udp%3A%2F%2Ftracker.openbittorrent.com%3A80","udp%3A%2F%2Fopen.demonii.com%3A1337","udp%3A%2F%2Ftracker.coppersurfer.tk%3A6969","udp%3A%2F%2Fexodus.desync.com%3A6969"],"infoHash":"5ae55ef634273e2cd4a11d557e59ab14ac044567","infoHashBuffer":{"type":"Buffer","data":[90,229,94,246,52,39,62,44,212,161,29,85,126,89,171,20,172,4,69,103]},"announce":[],"urlList":[]}}